<svg id="Layer_1" data-name="Layer 1" xmlns="http://www.w3.org/2000/svg" viewBox="0 0 700 614.5"><defs><style>.cls-1,.cls-11,.cls-12,.cls-7{fill:none;stroke-miterlimit:10;}.cls-1{stroke:#d2fff7;}.cls-1,.cls-11{stroke-width:15px;}.cls-2{fill:#676ecb;}.cls-3{fill:#15235c;}.cls-13,.cls-4{fill:#02bea6;}.cls-5{fill:#6c64c2;}.cls-6{fill:#20e2c6;}.cls-7{stroke:#c1ffff;stroke-width:3px;}.cls-8{fill:#c1ffff;}.cls-9{fill:#fff;}.cls-10{fill:#fc8686;}.cls-11{stroke:#02bea6;}.cls-12{stroke:#676ecb;stroke-width:14px;}.cls-13{font-size:87.17px;font-family:Tangerine;}</style></defs><path class="cls-1" d="M411.62,126c23.89,29.64,28.47,142.4-49.88,184S151.79,408.52,180.85,539.18" transform="translate(-162.5 -119)"/><path class="cls-1" d="M841,488.39S865.23,687.5,572.86,717" transform="translate(-162.5 -119)"/><path class="cls-1" d="M643.72,126S750,343.55,590.26,468.52,406.34,586.5,347.92,717" transform="translate(-162.5 -119)"/><path class="cls-1" d="M776.2,126S883.79,541.86,513.15,656.68c0,0-71.81,21.82-165.23,60.32" transform="translate(-162.5 -119)"/><path class="cls-1" d="M324.08,126c15.41,20.37,18.36,97.88-32.17,126.45S156.51,320.19,175.25,410" transform="translate(-162.5 -119)"/><path class="cls-1" d="M522.89,126c35.9,41,42.78,197.13-74.93,254.67S132.53,517.11,176.18,698" transform="translate(-162.5 -119)"/><path class="cls-2" d="M619.68,373c-3,23-24,37-66,42,0,0-33,82-104,72l-73,234H170V633.64S366.68,439,377.68,402l.16-.08.16.08,31.19-14.89c.66.45,1.31.92,2,1.39,0,0,29,7,44-12,0,0,16,1,21.5-13.5l132-19S622.68,350,619.68,373Z" transform="translate(-162.5 -119)"/><path class="cls-2" d="M409.19,387.11,378,402l-.16-.08L409.06,387Z" transform="translate(-162.5 -119)"/><path class="cls-3" d="M400.5,362.5s-12-18.8-3-21.9,25,10.9,27,16.9S400.5,362.5,400.5,362.5Z" transform="translate(-162.5 -119)"/><path class="cls-4" d="M416.5,366.46S461.41,267.11,470.39,266,447.93,377.5,447.93,377.5Z" transform="translate(-162.5 -119)"/><path class="cls-3" d="M465.94,397.84s-3.56-4.4,0-6.37,13.56-7,13.56-7,6.64.94,5.82,7-6.29,10.39-11.06,4.21Z" transform="translate(-162.5 -119)"/><path class="cls-3" d="M582,384.31a28.89,28.89,0,0,0,4.49,1.57,17.57,17.57,0,0,0,2.21.43,10.73,10.73,0,0,0,2.09.12,5.08,5.08,0,0,0,1.84-.46,6.48,6.48,0,0,1,1.55-.49,39.7,39.7,0,0,0,4.37-1.12l.42.28a5.63,5.63,0,0,1-2.62,5.35,5.46,5.46,0,0,1-3.07.89,15.11,15.11,0,0,1-3-.48,14.11,14.11,0,0,1-2.61-.92,18.13,18.13,0,0,1-6-4.79Z" transform="translate(-162.5 -119)"/><circle class="cls-3" cx="443" cy="243.5" r="5"/><path class="cls-3" d="M424.5,479.5s16,8,25.5,7.5l-5,16S426.5,498.5,424.5,479.5Z" transform="translate(-162.5 -119)"/><path class="cls-5" d="M347.71,460.21S333.5,522.5,391.5,557.5c0,0,8,4.84,7-14.58s-17.24-22.42-26.12-63.42S347.71,460.21,347.71,460.21Z" transform="translate(-162.5 -119)"/><path class="cls-5" d="M300.66,498.62c-.8-.8,21.52,28.88,39.52,42.88s33.28,60,32.14,92-27.14,68-60.14,74-82-19-98-27S170,669.64,170,669.64l.18-36.14Z" transform="translate(-162.5 -119)"/><path class="cls-6" d="M454,355.5s5-3,6,5c0,0,19.75-11.87,16.38,10.06S454,385.44,454,385.44s-8.65,6.47-16.83,5.27-10.59,6.5-21.38.15S173,635.5,173,635.5l-.18-85.9S184,545.5,192,547.5c0,0,2-33,28-39s20-3,20-3,3-55,61-57c0,0,11.47-53.28,61.24-56.64l27-16.95S396,351.5,423,359.5l-2,5s8,7,15,7,10-6,13-4S454,355.5,454,355.5Z" transform="translate(-162.5 -119)"/><path class="cls-7" d="M336.47,460.68q-.21-.81-.39-1.62c-10.3-45.6,25.54-67.59,25.54-67.59" transform="translate(-162.5 -119)"/><path class="cls-7" d="M298.61,446.61c.38,7.78,2.26,28.44,11.19,41.44.06.1.14.2.2.31l0,0" transform="translate(-162.5 -119)"/><path class="cls-7" d="M269.22,454.89c-4.74,12.39-14,44.22,1,75l.06.13" transform="translate(-162.5 -119)"/><path class="cls-7" d="M238,502.89c1.6,8.33,7.17,36.19,12.09,48.06" transform="translate(-162.5 -119)"/><path class="cls-7" d="M221.62,580.84c-11.89-30.85-6.82-62.74-4.52-73.52" transform="translate(-162.5 -119)"/><path class="cls-7" d="M189.38,545.06c1.21,11,5.23,44.45,10.53,58.22" transform="translate(-162.5 -119)"/><path class="cls-2" d="M409.38,387l-.19.09L378,402l-.16-.08c-2.53-1.24-34.1-17.18-28.34-35.42C349.5,366.5,357.29,350.92,409.38,387Z" transform="translate(-162.5 -119)"/><path class="cls-8" d="M402.5,373.5a12.7,12.7,0,0,1,1.36-1.72c.25-.26.51-.51.77-.76a1.85,1.85,0,0,1,.41-.34c.16-.06.34-.07.5-.14a22.69,22.69,0,0,1,4-1.05,10.54,10.54,0,0,1,4.48.18,6,6,0,0,1,2.23,1.17,6.16,6.16,0,0,1,1.58,2l-1.55-.81a11.49,11.49,0,0,1,3,.05,9.22,9.22,0,0,1,3,.94l.71.42.66.53a2.7,2.7,0,0,1,.31.28,1,1,0,0,1,.29.31,3.48,3.48,0,0,1,.29.82,5.34,5.34,0,0,1-.08,3.13,6.63,6.63,0,0,0-2-1.74,2,2,0,0,0-.51-.21c-.16-.07-.16-.28-.32-.34l-.37-.3-.42-.25a6.14,6.14,0,0,0-2-.62,9,9,0,0,0-2.19-.06l-1.06.13-.49-.94a3.08,3.08,0,0,0-2-1.62,7.68,7.68,0,0,0-3.19-.09,18.13,18.13,0,0,0-3.45.91c-.15,0-.28.14-.42.19a1.59,1.59,0,0,1-.49,0l-1,0Z" transform="translate(-162.5 -119)"/><path class="cls-8" d="M417,359c1.43,1.05,2.84,2.05,4.29,3a37,37,0,0,0,3.95,3.14c2.73,1.87,5.86,3.37,9,3.32a7.6,7.6,0,0,0,2.28-.36c.73-.22,1.58-.57,2.35-.88l4.79-2a11.61,11.61,0,0,1,2.73-.79,5.15,5.15,0,0,1,3.13.59,8,8,0,0,1,1.85,2.21,18,18,0,0,1,1.19,2.41,14.56,14.56,0,0,0-4.06-2.85,2.67,2.67,0,0,0-1.86-.37,9.73,9.73,0,0,0-2.25.66l-4.77,2c-.84.32-1.59.65-2.51.93a9.72,9.72,0,0,1-2.82.45,14,14,0,0,1-5.44-1.08,24.94,24.94,0,0,1-4.74-2.59,37.14,37.14,0,0,1-4.16-3.32A29,29,0,0,1,417,359Z" transform="translate(-162.5 -119)"/><path class="cls-8" d="M463,356a15.92,15.92,0,0,1-1.6,2.82c-.58.83-1.19,1.59-1.79,2.32s-1.24,1.42-1.83,2.13a26.64,26.64,0,0,0-1.91,2.42,4.69,4.69,0,0,1-.19-3.49,8.16,8.16,0,0,1,1.63-3,9.59,9.59,0,0,1,2.5-2.13A7.52,7.52,0,0,1,463,356Z" transform="translate(-162.5 -119)"/><path class="cls-9" d="M438,316l3.44,1.05c1,.61,2,1.14,3,1.68a53.67,53.67,0,0,0,6.27,2.75,43,43,0,0,0,6.57,1.84l1.67.3,1.69.19.82.32.84.27c.57.18,1.14.38,1.72.6a21.8,21.8,0,0,1-3.58.8l-1.78-.2-1.77-.32a45,45,0,0,1-6.86-1.92,54.6,54.6,0,0,1-6.51-2.85c-1.05-.55-2.08-1.14-3.1-1.73A20.56,20.56,0,0,1,438,316Z" transform="translate(-162.5 -119)"/><path class="cls-9" d="M425,340.64c1.49.32,2.93.65,4.39.93,1.32.59,2.68,1.08,4.05,1.54a55.36,55.36,0,0,0,8.38,2.14,41,41,0,0,0,8.56.46,29.21,29.21,0,0,0,4.19-.64c1.48.06,2.88-.25,4.43-.34a20.81,20.81,0,0,1-4,2.29,31.3,31.3,0,0,1-4.51.69,42.37,42.37,0,0,1-9-.49,57.46,57.46,0,0,1-8.7-2.21c-1.42-.47-2.81-1-4.2-1.57A26.94,26.94,0,0,1,425,340.64Z" transform="translate(-162.5 -119)"/><path class="cls-9" d="M450,288a20.72,20.72,0,0,1,3,.1l2.57,1.11c1.7.76,3.39,1.56,5.05,2.42a54.47,54.47,0,0,1,4.89,2.84l1.18.82c.37.31.76.6,1.13.92s.52.9.75,1.34A8.16,8.16,0,0,1,469,299c-.46-.26-.84-.51-1.26-.72s-.83-.4-1.26-.56-.68-.55-1-.82l-1.09-.77a51.79,51.79,0,0,0-4.7-2.72q-2.43-1.26-5-2.37c-.84-.37-1.67-.74-2.52-1.08C451.45,289.34,450.71,288.72,450,288Z" transform="translate(-162.5 -119)"/><path class="cls-9" d="M459,276a10.89,10.89,0,0,1,2.2-.07l1.75.92c1.15.63,2.29,1.3,3.4,2a19.51,19.51,0,0,1,3.16,2.58,7.91,7.91,0,0,1,1.32,1.79,2.77,2.77,0,0,1-.62,2.33,2.52,2.52,0,0,0-1.17-1.43,5.73,5.73,0,0,0-1-1.31,17.86,17.86,0,0,0-2.83-2.3c-1-.7-2.13-1.35-3.24-1.95-.56-.3-1.12-.61-1.69-.87C459.86,277.19,459.42,276.64,459,276Z" transform="translate(-162.5 -119)"/><ellipse class="cls-3" cx="371.5" cy="380.5" rx="7.5" ry="21.5" transform="translate(-311.89 368.58) rotate(-57.3)"/><path class="cls-2" d="M378,402s-40.06,57.82-48.11,65.91S427,402.06,427,402.06s-3.7-12.77-16.14-14.88S378,402,378,402Z" transform="translate(-162.5 -119)"/><path class="cls-10" d="M620.25,324.27s-24.13-6.73-19.5-16.91c4.25-9.36,13.38-1.42,13.38-1.42S617.6,289.55,626,295,620.25,324.27,620.25,324.27Z" transform="translate(-162.5 -119)"/><path class="cls-10" d="M648.1,306.38s-21.39-28.49-7.52-36c12.75-6.89,16.24,10,16.24,10s17.87-15.51,22.67-2.08S648.1,306.38,648.1,306.38Z" transform="translate(-162.5 -119)"/><polyline class="cls-11" points="692.5 16 692.5 607 26.5 607"/><rect class="cls-12" x="12.5" y="7" width="666" height="591"/><path class="cls-2" d="M207.55,185h20.24v11.19H194.16v-56h13.39Z" transform="translate(-162.5 -119)"/><path class="cls-2" d="M246.31,177.93c0,6.85,1.93,9.5,7.2,9.5s7.2-2.65,7.2-9.5V161.37h12.61v19.48c0,11.67-6.13,16.35-19.81,16.35s-19.81-4.68-19.81-16.35V161.37h12.61Z" transform="translate(-162.5 -119)"/><path class="cls-2" d="M281.16,161.37h12.61V165h.14a15.45,15.45,0,0,1,10.48-4.68c6.69,0,16,3.18,16,12.89v22.93H307.81V176.51a6.57,6.57,0,0,0-6.56-6.79c-3.78,0-7.48,3.32-7.48,6.79v19.67H281.16Z" transform="translate(-162.5 -119)"/><path class="cls-2" d="M328.26,161.37h12.61v40.17c0,6.18-3.14,13.3-13.18,13.3a20.28,20.28,0,0,1-10.05-2.17l3.92-9.7a7.17,7.17,0,0,0,3.2,1c2.14,0,3.5-1.5,3.5-4.75Zm6.48-21.51a7.13,7.13,0,1,0,7.48,7.13A7.31,7.31,0,0,0,334.74,139.86Z" transform="translate(-162.5 -119)"/><path class="cls-2" d="M365,160.36a17.09,17.09,0,0,1,12,4.34v-3.33h12.62v34.81H377.07v-3.93h-.15a16.55,16.55,0,0,1-12,4.95c-10.69,0-18.17-8.21-18.17-18.39S354.26,160.36,365,160.36Zm3.78,26.6c4.92,0,8.48-3.4,8.48-8.15a8.16,8.16,0,0,0-8.48-8.21c-4.77,0-8.55,3.39-8.55,8.21S363.6,187,368.73,187Z" transform="translate(-162.5 -119)"/><text class="cls-13" transform="translate(510.6 514.07)">&amp;</text><path class="cls-2" d="M588.4,511.8v57.28h23.47V583.4h-39V511.8Z" transform="translate(-162.5 -119)"/><path class="cls-2" d="M662.45,563.27H631.7q0,4.68,2.9,6.94a10,10,0,0,0,6.28,2.25,13.2,13.2,0,0,0,5.62-1,16.86,16.86,0,0,0,4.71-4l10.58,5.55q-6.62,11.64-22,11.63a22.35,22.35,0,0,1-16.44-6.9,23.61,23.61,0,0,1,0-33.28,22.27,22.27,0,0,1,16.44-6.94q10.08,0,16.41,6.12t6.32,17.48A18,18,0,0,1,662.45,563.27Zm-30.33-8.51h16.11a8.48,8.48,0,0,0-2.6-5.34,7.89,7.89,0,0,0-5.41-1.86,8.16,8.16,0,0,0-5.79,2A7.35,7.35,0,0,0,632.12,554.76Z" transform="translate(-162.5 -119)"/><path class="cls-2" d="M671.87,577.89a26.5,26.5,0,0,1,0-33.46A19.13,19.13,0,0,1,687,537.58a18.66,18.66,0,0,1,13.89,5.55v-4.25H715.5V583.4H701v-5h-.16A17.54,17.54,0,0,1,687,584.7,19.19,19.19,0,0,1,671.87,577.89Zm12.44-24.26a11.57,11.57,0,0,0-.13,15.06,9.4,9.4,0,0,0,7.19,2.91,9.3,9.3,0,0,0,7.07-3,10.52,10.52,0,0,0,2.77-7.47,10.4,10.4,0,0,0-2.86-7.55,9.34,9.34,0,0,0-7-3A9.44,9.44,0,0,0,684.31,553.63Z" transform="translate(-162.5 -119)"/><path class="cls-2" d="M725.42,583.4V538.88h14.63v6.42h.16a6.19,6.19,0,0,1,.54-.87,22.28,22.28,0,0,1,1.61-1.82,20.67,20.67,0,0,1,2.64-2.34,14.5,14.5,0,0,1,3.64-1.87,13,13,0,0,1,4.55-.82,16.47,16.47,0,0,1,4.71.69,14.52,14.52,0,0,1,3.39,1.39l1.15.7-6.11,13q-2.73-2.43-7.61-2.43a8.26,8.26,0,0,0-4.54,1.22,6.92,6.92,0,0,0-2.69,3,20.83,20.83,0,0,0-1.11,2.95,7.82,7.82,0,0,0-.33,1.91V583.4Z" transform="translate(-162.5 -119)"/><path class="cls-2" d="M766.57,583.4V538.88H781.2v4.69h.17q5.7-6,12.14-6a22.92,22.92,0,0,1,6.24.87,21.88,21.88,0,0,1,6,2.69,13.38,13.38,0,0,1,4.63,5.16,16.38,16.38,0,0,1,1.78,7.77V583.4H797.48V558.23a9.33,9.33,0,0,0-2.11-6.07,6.71,6.71,0,0,0-5.49-2.61,9.24,9.24,0,0,0-8.68,8.68V583.4Z" transform="translate(-162.5 -119)"/><path class="cls-2" d="M598,614.64a35.5,35.5,0,0,1,10.82,1.69,35,35,0,0,1,7.85,3.34l2.48,1.74-6.28,13c-.49-.35-1.18-.8-2.06-1.35a33.57,33.57,0,0,0-5-2.21,19.22,19.22,0,0,0-6.78-1.39,9.18,9.18,0,0,0-6,1.74A5.77,5.77,0,0,0,591,635.9a4.29,4.29,0,0,0,1,2.74,12.5,12.5,0,0,0,3.38,2.69c1.6.95,3,1.72,4.22,2.3s3.08,1.44,5.62,2.6a34,34,0,0,1,11.28,8,16.55,16.55,0,0,1,4.67,11.5A25.69,25.69,0,0,1,619,676.52a17.52,17.52,0,0,1-5.79,7.2,26.2,26.2,0,0,1-8.14,3.86,35.38,35.38,0,0,1-9.66,1.26,40.6,40.6,0,0,1-8.76-1,32.13,32.13,0,0,1-7.19-2.39c-1.93-1-3.67-1.89-5.21-2.82a25.27,25.27,0,0,1-3.39-2.34l-1.07-1,7.77-13.71c.66.58,1.57,1.32,2.72,2.21a42.47,42.47,0,0,0,6.16,3.6,17.57,17.57,0,0,0,7.81,2.26q9.83,0,9.83-7a5.49,5.49,0,0,0-.7-2.73,8.13,8.13,0,0,0-2.48-2.52,32.4,32.4,0,0,0-3.14-2q-1.37-.74-4.46-2.25t-4.59-2.3a26,26,0,0,1-9.58-8,17.67,17.67,0,0,1-3.39-10.37,20.28,20.28,0,0,1,6.77-15.75A22.42,22.42,0,0,1,598,614.64Z" transform="translate(-162.5 -119)"/><path class="cls-2" d="M628.4,687.54V612.91H643v34.8h.16q5.7-6,12.15-6a23.41,23.41,0,0,1,6.24.86,21.91,21.91,0,0,1,5.95,2.7,13.46,13.46,0,0,1,4.63,5.16,16.37,16.37,0,0,1,1.77,7.77v29.33H659.31V662.37a9.38,9.38,0,0,0-2.11-6.07,6.74,6.74,0,0,0-5.5-2.61,9.22,9.22,0,0,0-8.67,8.68v25.17Z" transform="translate(-162.5 -119)"/><path class="cls-2" d="M685.92,682a26.5,26.5,0,0,1,0-33.46A19.12,19.12,0,0,1,701,641.72a18.62,18.62,0,0,1,13.88,5.55V643h14.63v44.52H715.09v-5h-.17A17.5,17.5,0,0,1,701,688.84,19.18,19.18,0,0,1,685.92,682Zm12.43-24.26a11.56,11.56,0,0,0-.12,15.06,10.14,10.14,0,0,0,14.26,0,11.46,11.46,0,0,0-.09-15,9.36,9.36,0,0,0-7-2.95A9.46,9.46,0,0,0,698.35,657.77Z" transform="translate(-162.5 -119)"/><path class="cls-2" d="M739.47,687.54V643H754.1v6.42h.16a6.19,6.19,0,0,1,.54-.87,22.28,22.28,0,0,1,1.61-1.82,20.67,20.67,0,0,1,2.64-2.34,14.5,14.5,0,0,1,3.64-1.87,13,13,0,0,1,4.55-.82,16.47,16.47,0,0,1,4.71.69,14.23,14.23,0,0,1,3.38,1.39l1.16.69-6.11,13q-2.73-2.43-7.61-2.43a8.23,8.23,0,0,0-4.54,1.22,6.86,6.86,0,0,0-2.69,3,20.83,20.83,0,0,0-1.11,3,7.82,7.82,0,0,0-.33,1.91v23.43Z" transform="translate(-162.5 -119)"/><path class="cls-2" d="M823,667.41H792.27q0,4.68,2.9,6.94a10,10,0,0,0,6.28,2.25,13.2,13.2,0,0,0,5.62-1,17,17,0,0,0,4.71-4l10.58,5.55q-6.61,11.64-22,11.63a22.35,22.35,0,0,1-16.44-6.9,23.61,23.61,0,0,1,0-33.28,22.27,22.27,0,0,1,16.44-6.94q10.08,0,16.41,6.12t6.32,17.48A18,18,0,0,1,823,667.41Zm-30.33-8.51H808.8a8.48,8.48,0,0,0-2.6-5.34,7.89,7.89,0,0,0-5.41-1.86,8.16,8.16,0,0,0-5.79,2A7.35,7.35,0,0,0,792.69,658.9Z" transform="translate(-162.5 -119)"/><path class="cls-6" d="M204.07,186.85H224.3v11.2H190.67v-56h13.4Z" transform="translate(-162.5 -119)"/><path class="cls-6" d="M242.83,179.8c0,6.85,1.92,9.5,7.2,9.5s7.19-2.65,7.19-9.5V163.24h12.62v19.47c0,11.68-6.13,16.36-19.81,16.36s-19.81-4.68-19.81-16.36V163.24h12.61Z" transform="translate(-162.5 -119)"/><path class="cls-6" d="M277.67,163.24h12.61v3.66h.15a15.47,15.47,0,0,1,10.47-4.68c6.7,0,16,3.19,16,12.9v22.93H304.32V178.37a6.56,6.56,0,0,0-6.55-6.78c-3.78,0-7.49,3.32-7.49,6.78v19.68H277.67Z" transform="translate(-162.5 -119)"/><path class="cls-6" d="M324.77,163.24h12.61v40.17c0,6.18-3.13,13.3-13.18,13.3a20.28,20.28,0,0,1-10.05-2.17l3.92-9.7a7.23,7.23,0,0,0,3.21,1c2.14,0,3.49-1.49,3.49-4.75Zm6.48-21.51a7.13,7.13,0,1,0,7.49,7.12A7.31,7.31,0,0,0,331.25,141.73Z" transform="translate(-162.5 -119)"/><path class="cls-6" d="M361.47,162.22a17.11,17.11,0,0,1,12,4.34v-3.32h12.61v34.81H373.58v-3.94h-.14a16.57,16.57,0,0,1-12,5c-10.69,0-18.17-8.21-18.17-18.39S350.78,162.22,361.47,162.22Zm3.77,26.6c4.92,0,8.48-3.39,8.48-8.14a8.15,8.15,0,0,0-8.48-8.21c-4.77,0-8.55,3.39-8.55,8.21S360.11,188.82,365.24,188.82Z" transform="translate(-162.5 -119)"/></svg>