<svg id="Layer_1" data-name="Layer 1" xmlns="http://www.w3.org/2000/svg" viewBox="0 0 630.03 670.62"><defs><style>.cls-1{fill:#d9dcf9;}.cls-2{fill:#3f3d56;}.cls-3{fill:#02bea6;}</style></defs><path class="cls-1" d="M617.34,839.42S406,962.41,258.19,625.32s-26-407.16-26-407.16,72.95-87,262.71,48.71S831.68,396.3,812.83,641.35C812.83,641.35,761.15,806.26,617.34,839.42Z" transform="translate(-184.99 -190.69)"/><path class="cls-2" d="M815,630.47c-2,14.12-6.76,27.46-12.06,40.55Q757.71,782.82,647.42,831.84c-1.88.83-3.72,1.78-5.58,2.67-4.33,1.47-8.82,2.62-13,4.5s-6.4,1.18-9.19-2.56c-23.31-31.39-39.32-66.37-51.93-103.15-8.34-24.33-13.87-49.06-12.68-75,1-22.82-2.5-45-8.77-66.88-1.44-5-3.13-10-4.91-14.88-1.7-4.68-3.65-9.27-6.15-15.55-.67,2.9-1,3.85-1.11,4.85a671.72,671.72,0,0,1-25.2,113c-7.8,24.81-22.18,34.94-47.83,34-5.14-1.6-10.24-3.26-14.87-6.18-12.11-7.66-15.72-16.89-12-30.64,2.53-9.38,2.43-18.89,1.13-28.44-1.46-19.42-6.73-38-12.57-56.41-1.89-5.93-3.85-11.84-5.77-17.75q-.66-2.51-1.29-5-1-5.56-2-11.11h0c1.69-1.83,1.8-4.1,1.85-6.39.13-6.61-.14-13.24.42-19.82.49-5.71-.34-10.54-5.16-14.13a28.66,28.66,0,0,0,.75-3c1.94-14.87,7-28.32,18.13-38.85,2.07-1.95,1.56-4.13,1.28-6.36Q428.4,447,425.7,425.24c0-2.23.64-3,2.54-1.19q9.61,14,19.24,28c.42-.2.86-.38,1.29-.57q-1.92-13.15-3.86-26.32V417L455,430.21c5.32,7.74,9.9,16,16.73,22.65,1.29.08,2.59.24,3.21-1.29a7.47,7.47,0,0,0,1,.1,1.48,1.48,0,0,0,1-.28,1.1,1.1,0,0,0,.3-.39,2.26,2.26,0,0,0,.11-.26,3,3,0,0,0,.09-.4c2.79.78,5.3-.48,7.87-1.2a198.14,198.14,0,0,1,43.06-7.37c36.52-2,70.92,6.47,103.66,22,61.44,29.12,109.49,74.51,152.06,126.36,9.4,11.43,18.22,23.35,27.31,35C812.61,626.91,813.09,629.19,815,630.47Z" transform="translate(-184.99 -190.69)"/><path class="cls-3" d="M348.25,460.69a237.71,237.71,0,0,0,20,17.92q20.3,19.26,41.63,37.35c4.8,3.6,5.64,8.43,5.15,14.14-.56,6.57-.3,13.22-.42,19.83-.05,2.28-.16,4.56-1.84,6.39a207,207,0,0,0-16.5-21.61c-8-11.29-16.38-22.28-25.27-32.88l-44.53-58.58c8.86,4.67,13.66,11.87,20.56,16.24Z" transform="translate(-184.99 -190.69)"/><path class="cls-3" d="M779.74,523.45c-1.11-2.32-2.9-3.28-5.17-4.06-10-3.41-20-7-31.83-11.07l26.47-4.13c-9.94-16.48-20.64-31.08-33.64-43.95a6.59,6.59,0,0,0-6.11-2.06q-12.72,1.69-25.5,3.12c-10.42,1.17-20.85,2.21-31.26,3.32-.13-.48-.24-1-.37-1.45l44.34-19.05a160.3,160.3,0,0,0-34.9-20.23c-37.8-15.67-76.72-16.5-116.34-9.29-30.2,5.48-58.74,15.88-86.46,28.77-.53.64-1.05,1.26-1.57,1.91a.1.1,0,0,0,0,.05h.05c2.79.78,5.3-.48,7.87-1.2a198.14,198.14,0,0,1,43.06-7.37c36.52-2,70.92,6.47,103.66,22,61.44,29.12,109.49,74.51,152.06,126.36,9.4,11.43,18.22,23.35,27.31,35A401.59,401.59,0,0,0,779.74,523.45ZM670,465a.86.86,0,0,1-.52-.06c-.08,0-.1-.18-.15-.28a1.7,1.7,0,0,1,.51-.14C670.47,464.63,670.53,464.84,670,465Z" transform="translate(-184.99 -190.69)"/></svg>