<svg id="Layer_1" data-name="Layer 1" xmlns="http://www.w3.org/2000/svg" viewBox="0 0 1416 452.23"><defs><style>.cls-1{fill:#d9dcf9;}.cls-2,.cls-5{fill:#02bea6;}.cls-3{fill:#3f3d56;}.cls-4{fill:#fff;}.cls-5{font-size:163.73px;font-family:Tangerine;}</style></defs><path class="cls-1" d="M617,198.81h0a0,0,0,0,1,0,0V681.5a0,0,0,0,1,0,0H493a0,0,0,0,1,0,0V322.81a124,124,0,0,1,124-124Z" transform="translate(-355.61 455.62) rotate(-62.52)"/><path class="cls-1" d="M525.52,310.43h0a0,0,0,0,1,0,0v482.7a0,0,0,0,1,0,0h-124a0,0,0,0,1,0,0V434.43A124,124,0,0,1,525.52,310.43Z" transform="translate(-503.89 434.6) rotate(-62.52)"/><path class="cls-2" d="M798.06,409.45c-1.11-2.32-2.9-3.28-5.17-4.06-10-3.41-20-7-31.83-11.07l26.47-4.13c-9.94-16.48-20.64-31.08-33.64-43.95a6.61,6.61,0,0,0-6.11-2.06q-12.72,1.69-25.5,3.12c-10.42,1.17-20.85,2.21-31.26,3.32-.13-.48-.24-1-.37-1.45L735,330.12a160.71,160.71,0,0,0-34.9-20.23c-37.8-15.67-76.72-16.5-116.34-9.29-30.2,5.48-58.74,15.89-86.46,28.77l-1.57,1.91a.1.1,0,0,0,0,.05h.05c2.79.78,5.3-.48,7.87-1.19a197.56,197.56,0,0,1,43.06-7.38c36.52-2,70.92,6.47,103.67,22,61.43,29.12,109.48,74.51,152,126.36,9.4,11.43,18.22,23.35,27.31,35.05A401.59,401.59,0,0,0,798.06,409.45ZM688.36,351a.86.86,0,0,1-.52-.06c-.08,0-.1-.18-.15-.28a1.7,1.7,0,0,1,.51-.14C688.79,350.63,688.85,350.84,688.36,351Z" transform="translate(-264 -273.78)"/><path class="cls-3" d="M833.33,516.47c-2,14.13-6.76,27.46-12.06,40.55Q776,668.83,665.74,717.84c-1.88.83-3.72,1.78-5.58,2.68-4.33,1.47-8.82,2.61-13,4.49s-6.4,1.19-9.19-2.56c-23.31-31.39-39.32-66.36-51.93-103.15-8.34-24.33-13.87-49.06-12.68-75,1.05-22.82-2.5-45-8.77-66.88-1.44-5-3.13-10-4.91-14.88-1.7-4.68-3.65-9.27-6.15-15.55-.67,2.9-1,3.85-1.11,4.85a671.5,671.5,0,0,1-25.2,113c-7.8,24.81-22.18,34.94-47.83,34-5.14-1.6-10.24-3.25-14.87-6.18-12.11-7.66-15.72-16.89-12-30.64,2.53-9.38,2.43-18.89,1.13-28.44-1.46-19.41-6.73-38-12.57-56.41-1.88-5.93-3.85-11.84-5.77-17.74-.44-1.68-.87-3.35-1.29-5q-1-5.56-2-11.11h0c1.69-1.83,1.8-4.1,1.85-6.39.13-6.61-.14-13.24.42-19.81.49-5.72-.34-10.55-5.16-14.14a28.66,28.66,0,0,0,.75-3c1.94-14.87,7-28.32,18.13-38.85,2.07-1.94,1.56-4.13,1.28-6.36Q446.72,333,444,311.24c0-2.23.64-3,2.54-1.19q9.62,14,19.24,28c.42-.2.86-.39,1.29-.58q-1.92-13.15-3.86-26.32V303c3.86,5.07,6.95,9.15,10.06,13.22,5.32,7.74,9.9,16,16.73,22.66,1.29.07,2.59.23,3.21-1.3a7.47,7.47,0,0,0,1,.1,1.53,1.53,0,0,0,1-.27,1.31,1.31,0,0,0,.3-.39c0-.08.07-.17.11-.27a3,3,0,0,0,.09-.4c2.79.78,5.3-.48,7.87-1.19a197.56,197.56,0,0,1,43.06-7.38c36.52-2,70.92,6.47,103.67,22,61.43,29.12,109.48,74.51,152,126.36,9.4,11.43,18.22,23.35,27.31,35.05C830.93,512.91,831.41,515.19,833.33,516.47Z" transform="translate(-264 -273.78)"/><path class="cls-2" d="M367.58,347.69a236,236,0,0,0,20,17.92q20.3,19.26,41.63,37.35c4.81,3.6,5.64,8.43,5.15,14.14-.56,6.58-.3,13.22-.42,19.83-.05,2.28-.16,4.56-1.84,6.39a205.78,205.78,0,0,0-16.5-21.6c-8-11.3-16.38-22.28-25.27-32.89l-44.53-58.57c8.86,4.66,13.67,11.86,20.56,16.23Z" transform="translate(-264 -273.78)"/><polygon class="cls-4" points="724.77 252.48 801.64 252.48 801.64 297.13 673.89 297.13 673.89 73.85 724.77 73.85 724.77 252.48"/><path class="cls-4" d="M1136,498.11c0,27.33,7.3,37.89,27.33,37.89s27.34-10.56,27.34-37.89v-66h47.9v77.68c0,46.55-23.27,65.22-75.24,65.22s-75.24-18.67-75.24-65.22V432.07H1136Z" transform="translate(-264 -273.78)"/><path class="cls-4" d="M1268.35,432.07h47.9v14.61h.54c10.83-10.82,24.63-18.67,39.79-18.67,25.44,0,60.9,12.72,60.9,51.42v91.48h-47.91V492.42c0-13.8-9.47-27.06-24.9-27.06-14.34,0-28.42,13.26-28.42,27.06v78.49h-47.9Z" transform="translate(-264 -273.78)"/><path class="cls-4" d="M1495.15,437.08V592.3c0,24.62-11.91,53-50.07,53-22.74,0-31.39-5.68-38.16-8.66l14.89-38.7S1428,602,1434,602c8.12,0,13.27-6,13.27-18.95V439a35.93,35.93,0,0,0,47.9-1.93Z" transform="translate(-264 -273.78)"/><path class="cls-4" d="M1506.07,397.54a36,36,0,1,1-36-36A35.86,35.86,0,0,1,1506.07,397.54Z" transform="translate(-264 -273.78)"/><path class="cls-4" d="M1632.1,432.07v13.26c-11.38-11.1-26.8-17.31-45.47-17.31-40.59,0-69,33-69,73.6S1546,575,1586.63,575a61.51,61.51,0,0,0,45.47-19.76h.54v15.69H1680V432.07ZM1601,534.1c-19.49,0-32.49-13.53-32.49-32.48,0-19.21,14.34-32.74,32.49-32.74,17.85,0,32.2,13.53,32.2,32.74C1633.18,520.57,1619.64,534.1,1601,534.1Z" transform="translate(-264 -273.78)"/><text class="cls-5" transform="translate(708.93 355.12)">Academy</text></svg>